<svg width="211" height="113" viewBox="0 0 211 113" fill="none" xmlns="http://www.w3.org/2000/svg">
<path d="M76.7456 12.9202C79.0694 12.2524 82.0972 11.0558 84.4223 10.211L96.9204 5.68351C98.3557 5.15948 102.495 3.52399 103.804 3.23768C104.623 3.05853 111.863 5.87542 112.887 6.24826L129.084 12.1118C131.858 13.1155 135.34 14.4882 138.091 15.33C138.271 17.9013 138.102 20.5999 138.155 23.185C138.165 23.6813 138.151 24.2025 138.112 24.6963C134.377 26.0427 104.821 36.935 104.064 36.8741C104.212 34.8461 104.025 32.4858 104.07 30.4308C104.086 29.6755 104.005 28.4146 104.161 27.7122L117.217 22.9878C119.826 22.0459 122.74 20.9182 125.344 20.0682C123.931 19.4022 121.407 18.5725 119.866 18.0181L109.656 14.3338C108.016 13.7396 105.763 12.9978 104.199 12.3181C100.803 13.395 97.2624 14.9035 93.871 16.0573C92.5868 16.4942 90.6597 17.3229 89.3791 17.5814C86.8581 16.7615 84.23 15.7348 81.7215 14.8437C80.5356 14.4223 77.762 13.4719 76.7456 12.9202Z" fill="black"/>
<path d="M70.1357 24.7402C73.07 25.7116 76.008 26.9616 78.94 27.8687C78.9186 29.8572 78.8696 31.9166 78.9309 33.8984C80.7381 34.7217 84.077 35.8068 86.0596 36.5446C92.0359 38.769 98.1633 40.8147 104.101 43.1396C108.33 41.4553 113.016 39.8388 117.303 38.3105L128.874 34.1076C131.884 33.0243 135.227 31.8872 138.169 30.6939C138.056 33.4973 138.346 37.3538 138.088 40.0158C135.581 41.0429 132.612 42.0371 130.029 42.967L116.861 47.7343L109.118 50.5382C107.608 51.086 105.953 51.745 104.4 52.1145C103.972 52.2167 103.34 52.0537 102.913 51.9107C100.563 51.1238 98.2379 50.1911 95.9016 49.354L78.458 43.0357C75.9259 42.1204 72.7901 40.8843 70.2666 40.0874C70.1049 38.8935 70.1968 36.4642 70.1808 35.1886C70.1369 31.7252 70.2565 28.2033 70.1357 24.7402Z" fill="black"/>
<path d="M131.708 63.525C136.653 62.8104 141.056 65.7624 142.04 70.6966C143.92 80.1231 136.936 86.4499 127.888 82.5048C127.927 83.4296 127.912 84.3368 127.902 85.2614C127.888 86.9238 127.898 88.5864 127.934 90.2485C126.502 90.771 125.038 91.1594 123.597 91.6541C123.713 84.7924 123.512 77.8566 123.603 70.9881C123.633 68.7327 123.698 66.0549 123.545 63.8209C124.708 63.8067 125.941 63.7884 127.087 63.9474L127.565 64.8746C129.397 64.0863 129.552 63.7651 131.708 63.525ZM127.859 67.9881C127.836 71.549 127.75 75.5809 127.877 79.1046C130.058 79.9291 132.108 80.3864 134.393 79.5811C140.176 77.0783 138.951 66.3674 131.349 67.1324C129.861 67.2774 129.284 67.4794 127.859 67.9881Z" fill="black"/>
<path d="M73.1948 63.5095C78.7401 62.6772 83.9088 66.5024 84.7357 72.0505C85.5627 77.5985 81.7344 82.7658 76.1877 83.5882C70.6479 84.4094 65.4904 80.5856 64.6646 75.0445C63.8386 69.5034 67.6565 64.3406 73.1948 63.5095ZM75.3594 79.9696C82.8903 78.7236 81.4029 66.1152 74.1355 67.1256C73.5714 67.1985 73.0985 67.2604 72.5666 67.473C67.322 69.5674 68.0821 79.648 74.1762 79.9771C74.5523 79.9974 74.9845 79.9847 75.3594 79.9696Z" fill="black"/>
<path d="M70.193 15.3013C71.6655 15.9496 73.7119 16.6293 75.2585 17.1837L82.6171 19.8428L104.161 27.7115C104.005 28.4139 104.087 29.6748 104.07 30.43C104.025 32.4851 104.212 34.8454 104.064 36.8734C102.968 36.6299 101.944 36.2998 100.896 35.9021C93.6365 33.1457 86.1488 30.7379 78.9407 27.8682C76.0086 26.9612 73.0706 25.7112 70.1364 24.7398C69.8771 22.5543 70.1175 17.683 70.193 15.3013Z" fill="black"/>
<path d="M97.8455 63.5279C100.023 63.161 102.794 63.8068 104.422 65.3428C106.448 64.1192 108.768 63.4678 111.135 63.4578C118.925 63.3481 118.37 68.8727 118.367 74.5357L118.359 83.3765C116.959 83.3537 115.56 83.3525 114.16 83.3729C114.195 79.7564 114.122 76.1327 114.163 72.5153C114.172 71.6224 114.149 70.1883 113.812 69.3489C112.492 66.0539 108.279 67.0218 105.739 68.0088C105.602 71.4657 105.712 75.5849 105.716 79.091L105.701 83.3476C104.913 83.2631 102.445 83.3476 101.554 83.3671L101.527 75.4543C101.529 73.8073 101.581 72.1816 101.467 70.5365C101.135 65.7289 96.0681 66.8767 93.1 68.2917C93.1194 73.3208 93.109 78.3501 93.0688 83.379C91.7074 83.3249 90.1962 83.3468 88.8227 83.3425C88.7448 77.8696 88.8476 72.3825 88.7979 66.9081C88.7884 65.8654 88.8008 64.8441 88.7373 63.8014C89.7677 63.8034 91.1587 63.7873 92.1537 63.9334L92.8523 65.0725C94.6622 64.1407 95.8321 63.723 97.8455 63.5279Z" fill="black"/>
<path d="M10.331 63.5259C13.0634 63.0426 16.3919 64.2062 18.1842 66.3287C20.4993 69.0705 20.713 71.9863 20.4961 75.4182C15.9317 75.4883 10.5751 75.5002 6.02439 75.3817C6.06327 75.53 6.10323 75.6779 6.14429 75.8256C7.67151 81.3079 13.0135 81.096 17.4416 79.7781L18.3691 79.5078C18.6146 80.5156 19.0279 81.7376 19.3392 82.7446C18.0849 83.3468 16.0243 83.8896 14.6395 84.0445C11.2172 84.4434 7.96862 84.2052 5.1517 82.005C0.755953 78.5716 0.327215 71.2892 3.71961 67.0227C5.38747 64.9251 7.68714 63.8124 10.331 63.5259ZM6.03712 72.1166C7.75945 72.1366 9.48194 72.1383 11.2043 72.1218C12.7759 72.1275 14.6967 72.1883 16.239 72.1304C15.6869 69.2065 14.5596 66.776 11.0795 67.0226C7.81324 67.42 6.67686 69.0552 6.03712 72.1166Z" fill="black"/>
<path d="M151.475 63.5282C153.408 63.2839 156.506 63.4557 158.318 64.4109C162.89 66.8203 161.342 72.6248 161.647 76.8991C161.84 79.5852 161.871 80.7341 162.688 83.3515C161.19 83.3358 160.167 83.3764 158.655 83.2541L158.331 82.1301C154.938 83.8651 149.666 84.6702 146.671 81.7599C145.37 80.4286 144.906 78.3063 145.23 76.5249C146.283 70.7452 153.527 71.04 157.653 71.6709C157.373 67.8222 155.836 66.8464 152.024 66.9978C150.226 67.0691 148.856 67.3424 147.142 67.9054L146.048 64.8389C147.447 64.1484 149.937 63.668 151.475 63.5282ZM154.186 80.2887C155.605 80.0343 156.218 79.8841 157.545 79.335C157.559 77.7457 157.593 76.1088 157.554 74.5245C155.96 74.3307 154.098 74.1859 152.496 74.3395C147.379 75.2153 148.199 81.152 154.186 80.2887Z" fill="black"/>
<path d="M33.7798 63.5289C35.9133 63.2017 38.707 63.5892 40.2858 65.1622C41.0364 65.9163 41.5695 66.8593 41.8289 67.8912C42.3071 69.7427 42.2242 73.2024 42.2267 75.2039L42.2288 83.3463C40.8423 83.3494 39.3752 83.3088 37.999 83.3617C37.9451 80.8005 37.9277 78.2386 37.9469 75.6768C37.9692 70.8765 38.6941 66.4201 32.0732 67.2444C30.8052 67.5323 30.0137 67.8199 28.832 68.3568C28.7488 70.0907 28.7912 72.1718 28.7877 73.9211L28.8044 83.3716L24.6398 83.3566C24.5939 78.8735 24.5816 74.3902 24.603 69.907C24.6031 67.9609 24.6535 65.7305 24.5693 63.8158C24.9972 63.8249 25.4635 63.8141 25.8915 63.8018C27.5403 63.7544 28.0361 63.5146 28.5428 65.1876C30.3349 64.1995 31.7389 63.7267 33.7798 63.5289Z" fill="black"/>
<path d="M190.524 63.5241C193.439 63.1673 196.351 63.8106 199.146 64.4989C198.335 65.4175 197.631 66.392 196.755 67.2677C194.812 66.969 190.833 66.1912 189.226 67.7276C188.967 67.9748 188.441 68.7452 188.555 69.1014C189.361 71.5919 193.633 71.6061 195.734 72.625C196.904 73.0341 197.782 73.5181 198.752 74.298C200.773 75.9239 200.607 79.6393 198.935 81.467C197.349 83.2018 194.548 83.5752 192.263 83.6819C191.209 83.6939 184.339 83.2511 184.191 82.188C184.536 81.5479 185.779 80.2165 186.312 79.6135C187.941 79.9511 189.715 80.2759 191.347 80.3376C192.654 80.3469 194.893 80.3079 195.734 79.1631C197.152 77.1909 194.687 76.1842 193.165 75.7387C190.947 75.0898 188.596 74.6847 186.675 73.3252C185.033 72.1637 184.599 70.6975 184.678 68.7839C184.821 65.3609 187.465 63.9236 190.524 63.5241Z" fill="black"/>
<path d="M172.169 63.5246C174.656 63.0966 178.287 63.9152 180.706 64.4764C179.96 65.3357 179.148 66.516 178.322 67.2572C176.412 66.9819 172.083 66.1835 170.652 67.818C170.373 68.1428 170.235 68.5657 170.268 68.9929C170.401 70.7394 172.533 71.1744 173.866 71.573C176.972 72.5168 181.585 73.3289 181.772 77.3854C182.002 82.3636 177.866 83.5321 173.815 83.6851C170.946 83.735 168.29 83.2635 165.564 82.4109C166.065 81.6592 167.241 80.2971 167.882 79.6392C170.082 80.04 172.461 80.5893 174.676 80.2873C178.486 79.7679 178.95 76.9761 174.987 75.8122C172.572 75.0138 167.767 74.2975 166.691 71.5327C164.874 66.8647 168.064 64.0436 172.169 63.5246Z" fill="black"/>
<path d="M54.8362 63.5262C57.5873 63.2078 60.2703 63.7342 62.7764 64.8693C62.4691 65.8548 61.972 67.0447 61.5923 68.0236C58.3747 67.0218 54.1268 66.1592 51.7526 69.4635C49.8418 72.123 50.2096 76.9666 53.0328 78.8878C55.3391 80.4573 58.23 80.1218 60.7558 79.2963C61.0758 79.1944 61.2148 79.1069 61.5618 79.045L61.7629 79.1895L62.9354 82.0917C61.5473 82.9925 59.8509 83.3217 58.2441 83.5643C52.306 84.4396 46.9694 81.2652 46.2612 75.0386C45.5898 69.1364 48.729 64.194 54.8362 63.5262Z" fill="black"/>
<path d="M175.058 98.4664C180.361 98.2696 180.766 106.51 176.006 107.318C175.069 107.342 174.023 107.328 173.274 106.702C170.546 104.416 171.138 99.0308 175.058 98.4664ZM175.827 105.803C178.301 104.611 178.055 99.8676 174.993 100.095C172.571 101.468 172.913 105.912 175.827 105.803Z" fill="black"/>
<path d="M129.974 98.4552C134.079 98.2925 135.127 102.833 133.369 105.893C132.87 106.761 131.938 107.144 130.987 107.322C129.96 107.351 129.099 107.348 128.217 106.701C126.273 105.278 126.114 101.824 127.43 99.9387C128.063 99.0334 128.915 98.6275 129.974 98.4552ZM130.848 105.772C133.192 104.554 132.94 99.8806 129.991 100.092C127.397 101.372 127.848 106.041 130.848 105.772Z" fill="black"/>
<path d="M182.942 98.6492C184.547 98.6597 184.605 98.9481 185.51 100.293C186.358 101.552 187.138 102.855 188.066 104.058C187.995 102.41 187.96 100.323 188.022 98.6836L189.595 98.6655C189.513 100.564 189.637 102.684 189.583 104.603C189.562 105.341 189.629 106.39 189.528 107.097L189.37 107.196C188.323 107.22 188.154 107.295 187.545 106.365C186.533 104.82 185.388 103.311 184.494 101.693C184.379 102.973 184.407 105.887 184.493 107.178L182.814 107.213C182.757 106.2 182.645 99.0543 182.942 98.6492Z" fill="black"/>
<path d="M107.307 104.12L107.247 101.392C107.236 100.788 107.113 99.0937 107.448 98.7471C107.873 98.5881 108.354 98.675 108.812 98.7172C108.839 101.545 108.781 104.369 108.818 107.219L107.349 107.181C106.083 105.432 104.875 103.64 103.728 101.809C103.647 102.828 103.654 104.084 103.64 105.121C103.645 105.811 103.659 106.525 103.649 107.214C103.208 107.214 102.49 107.294 102.167 107.078C101.981 106.788 102.026 106.538 102.03 106.183C102.018 103.754 101.952 101.091 102.044 98.6803C102.406 98.6747 102.8 98.6425 103.16 98.69C104.046 98.8075 106.571 103.193 107.307 104.12Z" fill="black"/>
<path d="M103.641 105.12C103.646 105.811 103.66 106.525 103.65 107.214C103.209 107.214 102.491 107.294 102.167 107.078C101.981 106.788 102.027 106.538 102.031 106.183C102.199 106.498 102.306 106.966 102.638 107.065C103.05 106.757 103.048 105.511 103.641 105.12Z" fill="black"/>
<path d="M32.4678 98.6922C33.8957 98.7353 36.0844 98.5763 37.4261 98.8136C38.1886 99.1629 38.6772 99.5678 38.9748 100.382C39.0758 100.699 39.1159 101.175 39.1054 101.508C39.017 104.328 36.0856 104.018 34.1224 103.966C34.1484 104.972 34.11 106.183 34.1027 107.205C33.6034 107.181 33.0061 107.199 32.4988 107.201L32.4678 98.6922ZM34.1117 102.555C34.9082 102.544 36.3342 102.577 37.0334 102.328C37.9965 99.586 35.8939 100.324 34.1366 100.139L34.1117 102.555Z" fill="black"/>
<path d="M37.4262 98.8137C38.1887 99.163 38.6774 99.5678 38.9749 100.382C38.1254 100.599 37.6522 99.5088 37.2592 99.0366C37.0621 98.9818 36.8984 98.9363 36.7681 98.9L37.4262 98.8137Z" fill="black"/>
<path d="M22.7664 98.7225C24.2266 98.6698 26.0181 98.5886 27.4297 98.7863C29.4253 99.0657 30.0165 101.887 28.6469 103.208C27.7971 104.028 27.0911 103.98 26.0209 103.996L24.4134 104.005L24.3959 107.204C23.8703 107.189 23.3176 107.194 22.7893 107.19L22.7664 98.7225ZM24.3841 102.539C25.1456 102.541 26.6851 102.613 27.2983 102.281C28.3065 99.7442 26.0575 100.14 24.3902 100.196C24.3979 100.944 24.4258 101.802 24.3841 102.539Z" fill="black"/>
<path d="M88.4467 98.6553C88.8908 98.6554 89.4105 98.6876 89.8609 98.7038C91.0057 101.242 92.155 104.59 93.1387 107.231C92.5878 107.191 91.8999 107.188 91.3368 107.172C90.9188 106.211 91.1878 105.434 89.964 105.393C89.1173 105.417 88.2238 105.4 87.373 105.396C87.2648 105.901 86.9915 106.654 86.8237 107.163L85.0137 107.217C85.356 106.028 87.8812 99.1366 88.4467 98.6553ZM87.9283 103.935C88.3903 103.953 88.8914 103.982 89.3506 103.977C89.6174 103.947 89.8815 103.958 90.0613 103.785C89.9548 103.389 89.282 101.349 89.0755 101.161C88.6327 102.093 88.3654 103.068 87.9283 103.935Z" fill="black"/>
<path d="M80.1253 102.025C80.1336 101.602 80.1489 101.07 80.116 100.656C79.9767 98.9149 79.9741 98.5667 81.7381 98.6558C81.7422 98.6955 81.7461 98.7352 81.7501 98.7749C81.7265 101.524 81.7803 104.276 81.7403 107.024C81.6817 107.094 81.6329 107.151 81.5942 107.198C81.115 107.194 80.614 107.22 80.1335 107.238C80.1295 106.007 80.1327 104.777 80.1429 103.546C78.9443 103.589 77.7447 103.596 76.5458 103.564C76.5866 104.657 76.5396 106.089 76.5307 107.206C75.9985 107.192 75.3977 107.206 74.8591 107.207C74.7974 105.112 74.7951 101.11 74.8634 98.8749C74.9443 98.7874 75.0141 98.7119 75.0729 98.6482C75.5773 98.6755 76.0455 98.6705 76.549 98.6664C76.5652 99.788 76.592 100.913 76.5529 102.033C77.7437 102.023 78.9344 102.021 80.1253 102.025Z" fill="black"/>
<path d="M146.684 98.656L148.079 98.6623C148.14 99.7964 147.824 104.818 148.677 105.326C152.743 107.75 151.697 100.859 151.707 98.6931L153.431 98.6722L153.412 100.578C153.417 102.036 153.643 104.693 152.955 105.902C151.663 108.035 147.037 107.887 146.663 105.127C146.538 104.206 146.337 99.2114 146.684 98.656Z" fill="black"/>
<path d="M12.1253 98.6783L13.692 98.6604C13.7087 99.8717 12.6091 107.982 16.6643 105.371C17.6419 104.741 17.2467 100.195 17.3105 98.6801C17.7768 98.6699 18.3861 98.7094 18.8631 98.7264L18.854 100.257C18.8624 101.79 19.087 104.73 18.4243 105.948C17.1056 108.147 12.4964 107.764 12.1227 105.017C11.9925 104.059 11.7915 99.2031 12.1253 98.6783Z" fill="black"/>
<path d="M118.871 103.026C115.588 101.132 118.139 97.5134 121.601 98.7003C122.344 99.0916 123.252 99.6466 122.797 100.565C122.494 100.794 122.184 100.87 121.825 100.988L121.097 100.33C120.376 100.015 119.407 99.8027 119.026 100.74C119.401 101.955 122.927 102.129 123.358 104.03C123.701 105.548 123.128 106.737 121.652 107.176C120.574 107.491 119.415 107.365 118.43 106.824C117.793 106.47 116.891 105.771 117.378 104.958C117.683 104.675 118.054 104.614 118.458 104.502C119.075 105.155 119.554 105.741 120.521 105.781C121.125 105.805 121.774 105.479 121.744 104.796C121.733 104.519 121.612 104.259 121.406 104.074C121.282 103.962 120.884 103.762 120.722 103.681C120.038 103.489 119.53 103.287 118.871 103.026Z" fill="black"/>
<path d="M121.601 98.7C122.344 99.0912 123.252 99.6462 122.798 100.565C122.495 100.793 122.185 100.87 121.825 100.988L121.098 100.329C121.308 100.228 121.582 100.133 121.694 99.9434C121.527 99.6175 121.4 99.4094 121.202 99.1019L121.248 98.9812L121.512 99.059L121.609 98.9506L121.258 98.818L121.302 98.8065L121.328 98.7413L121.601 98.7Z" fill="black"/>
<path d="M118.871 103.026L118.958 102.735C119.513 102.445 120.704 102.952 120.945 103.474C120.857 103.6 120.862 103.629 120.722 103.681C120.038 103.489 119.53 103.287 118.871 103.026Z" fill="black"/>
<path d="M4.1031 103.037C1.45587 102.512 2.12499 97.4678 6.48927 98.6362C7.23082 98.9441 8.29052 99.518 7.99679 100.484C7.50739 101.119 6.8146 100.941 6.30969 100.436C5.75191 99.956 4.86117 99.8916 4.33791 100.444C3.73892 102.532 9.54414 101.65 8.55141 105.372C7.64338 108.776 2.00639 107.18 2.40816 105.133C2.6301 104.746 2.85035 104.702 3.26861 104.589C3.38641 104.557 3.50466 104.527 3.62331 104.499C4.23916 105.194 4.68907 105.736 5.68304 105.765C6.64371 105.792 6.84307 105.371 6.9065 104.56L6.79342 104.285C6.04446 103.627 5.03925 103.511 4.1031 103.037Z" fill="black"/>
<path d="M6.48915 98.6362C7.2307 98.9441 8.2904 99.518 7.99667 100.484C7.50727 101.119 6.81448 100.941 6.30957 100.436L6.66073 100.416L6.72101 100.304C7.0216 100.209 6.94974 100.181 7.19798 100.26L6.98141 100.565L7.00012 100.67C7.28523 100.574 7.38323 100.561 7.58105 100.34C7.03268 99.9769 6.08829 99.3658 6.48915 98.6362Z" fill="black"/>
<path d="M4.10303 103.037C4.50695 102.924 6.64743 103.469 6.94645 103.898C6.9382 104.201 6.98587 104.099 6.79335 104.285C6.04438 103.628 5.03918 103.511 4.10303 103.037Z" fill="black"/>
<path d="M194.622 102.907C191.804 101.268 193.871 97.6515 197.387 98.6462C198.124 99.0009 199.199 99.5835 198.804 100.517C198.523 100.776 198.119 100.862 197.746 100.977C197.495 100.75 197.149 100.455 196.921 100.22C196.201 99.9834 195.331 99.8959 195.003 100.76C195.251 101.719 197.884 102.17 198.74 103.112C200.084 104.426 199.388 106.873 197.493 107.206C196.316 107.413 195.127 107.363 194.105 106.632C192.61 105.563 192.768 105.088 194.286 104.492C195.265 105.293 195.26 105.504 196.436 105.96C197.895 105.31 198.346 104.425 196.602 103.671C195.853 103.428 195.319 103.272 194.622 102.907Z" fill="black"/>
<path d="M197.387 98.6465C198.124 99.0012 199.199 99.5839 198.804 100.518C198.523 100.776 198.119 100.863 197.746 100.977C197.495 100.75 197.149 100.455 196.921 100.22C197.071 100.14 196.987 100.16 197.182 100.211C197.428 100.086 197.582 100.019 197.854 99.9715L197.744 99.9578L197.828 100.003L197.845 99.9537L197.56 99.8812C197.282 99.4868 197.305 99.2013 197.371 98.7527L197.387 98.6465Z" fill="black"/>
<path d="M194.622 102.908C195.156 102.508 196.411 102.939 196.778 103.397L196.762 103.561L196.602 103.671C195.853 103.428 195.319 103.273 194.622 102.908Z" fill="black"/>
<path d="M68.3206 98.4646C69.3528 98.4844 71.4743 99.1618 71.3028 100.444C71.015 100.868 70.4996 100.955 70.0144 101.079C66.788 97.2922 65.1622 105.05 68.1784 105.778C68.842 105.939 69.6468 105.102 70.1317 104.695C70.5568 104.872 71.0867 105.04 71.5291 105.193C71.3564 105.525 71.1643 105.869 70.9507 106.179C70.0386 107.59 67.5502 107.653 66.3398 106.708C64.2206 105.053 64.3453 100.261 66.7855 98.9118C67.3577 98.5956 67.6887 98.534 68.3206 98.4646Z" fill="black"/>
<path d="M55.3591 98.6759C55.6759 98.6903 56.7567 98.6487 56.94 98.7349C56.8613 99.3575 55.4384 101.554 55.0463 102.196C53.7041 104.241 53.9392 104.78 53.9374 107.211C53.4207 107.197 52.8791 107.202 52.3599 107.2C52.3751 106.23 52.4629 104.607 52.2085 103.732C51.928 102.767 49.2857 99.4487 49.4231 98.6577C49.9169 98.7032 50.5188 98.7035 51.0225 98.7171C51.6592 99.462 52.663 101.288 53.1831 102.192C53.8038 101.096 54.592 99.6147 55.3591 98.6759Z" fill="black"/>
<path d="M156.764 98.6621C158.88 98.6933 160.996 98.6937 163.112 98.663L163.08 100.245C162.289 100.177 161.523 100.192 160.73 100.195L160.722 105.153L160.723 107.187C160.204 107.179 159.609 107.206 159.084 107.216C159.009 104.952 159.043 102.479 159.054 100.202C158.233 100.158 157.323 100.382 156.683 100.036C156.366 99.5861 156.392 99.0639 156.764 98.6621Z" fill="black"/>
<path d="M43.0074 98.6702C43.3294 98.6574 43.5532 98.6135 43.831 98.7636C44.008 99.1018 43.9205 104.844 43.8952 105.644C45.2478 105.612 46.6009 105.602 47.9538 105.616C48.004 106.134 48.1472 106.783 47.8555 107.175L47.5214 107.188L42.2385 107.202L42.2265 101.798C42.2243 101.048 42.1655 99.5486 42.2765 98.8772C42.5433 98.6686 42.6298 98.7198 43.0074 98.6702Z" fill="black"/>
<path d="M137.949 98.6811C138.397 98.6575 138.906 98.6593 139.36 98.6499C139.364 100.75 139.452 103.582 139.322 105.626C140.187 105.675 142.702 105.65 143.532 105.563L143.539 107.199L137.723 107.195C137.792 104.842 137.645 101.339 137.754 98.8952C137.83 98.8113 137.895 98.74 137.949 98.6811Z" fill="black"/>
<path d="M166.601 98.672C167.05 98.6849 167.583 98.6415 168.038 98.6165C168.039 99.9222 168.21 106.196 167.971 107.116L167.748 107.177C167.339 107.172 166.899 107.225 166.489 107.265C166.464 106.112 166.297 99.1724 166.601 98.672Z" fill="black"/>
<path d="M96.6139 98.6536L97.9856 98.6893C97.9966 99.7087 98.1149 106.858 97.8524 107.196H96.443C96.4382 105.974 96.2733 99.1533 96.6139 98.6536Z" fill="black"/>
<path d="M202.774 64.3733L202.987 64.4817C203.246 64.8078 203.336 65.3882 203.468 65.8291C203.73 66.0126 203.616 65.9907 203.892 65.9548C204.394 65.4992 204.289 64.5411 204.961 64.4401C205.162 64.9051 205.148 66.7771 204.936 67.2321L204.75 67.2704L204.613 67.0899C204.636 66.7511 204.71 66.3671 204.564 66.0842C204.252 66.2049 204.006 66.8348 203.637 67.1899C203.507 66.9355 203.364 66.0325 203.249 65.6241C203.169 66.0847 203.07 66.888 202.892 67.2874L202.786 67.1758C202.616 66.5199 202.43 64.9809 202.774 64.3733Z" fill="black"/>
<path d="M200.819 64.4001C201.156 64.4463 201.844 64.618 201.754 65.0478C201.462 65.18 201.128 65.0357 200.74 64.9728L200.678 65.1154C200.991 65.8693 202.129 65.741 201.889 66.7806C201.581 67.1543 201.526 67.191 201.102 67.4282C200.704 67.3206 200.123 67.1261 200.062 66.6799L200.21 66.5014C200.769 66.4963 200.517 66.8265 201.078 66.8658L201.274 66.642C201.201 65.8007 200.018 66.0058 200.105 65.0187C200.336 64.6499 200.436 64.6149 200.819 64.4001Z" fill="black"/>
</svg>
