<svg xmlns="http://www.w3.org/2000/svg" fill="none" viewBox="0 0 184.574 37.8" height="37.8" width="184.574">
<g>
<path fill="#FFFFFF" d="M131.644 2.99448C134.104 2.81916 135.448 3.22708 136.985 5.22765C139.475 1.5958 145.427 2.34826 146.385 6.77395C146.65 7.997 146.557 9.46147 146.555 10.7204L146.546 15.7943L143.312 15.7974L143.327 10.9874C143.33 9.97759 143.397 8.75443 143.212 7.80051C142.688 5.05407 138.338 5.04106 137.82 7.77253C137.579 9.03881 137.686 10.6448 137.698 11.9535L137.699 15.7915L134.472 15.7966L134.483 11.1768C134.488 10.1014 134.566 9.07138 134.379 7.95602C134.023 5.69892 131.186 5.04464 129.648 6.48422C128.546 7.51663 128.785 9.69973 128.789 11.0769L128.811 15.7917L125.545 15.7953L125.544 3.14392L128.813 3.13728L128.798 4.53184C129.714 3.53078 130.359 3.27168 131.644 2.99448Z"></path>
<path fill="#FFFFFF" d="M115.738 2.86595C119.356 2.66035 122.464 5.4162 122.695 9.03749C122.927 12.6588 120.197 15.7891 116.581 16.0475C112.928 16.3086 109.761 13.5409 109.526 9.88209C109.293 6.2232 112.081 3.07366 115.738 2.86595ZM116.749 13.1224C117.365 12.9309 117.79 12.7657 118.262 12.298C120.392 10.1901 119.357 5.5099 115.894 5.75836C115.695 5.77258 115.493 5.77719 115.293 5.79245C111.046 7.34609 112.699 14.1262 116.749 13.1224Z"></path>
<path fill="#FFFFFF" d="M155.439 2.92777C155.56 2.91526 155.681 2.91126 155.803 2.91579C158.67 3.0306 160.862 4.35211 161.71 7.23226C162.038 8.34841 161.969 9.27544 161.923 10.4175C158.998 10.5112 155.516 10.4282 152.551 10.4299L152.557 10.4564C152.736 11.4276 153.098 12.255 153.943 12.8289C154.606 13.2784 155.421 13.4453 156.208 13.2927C157.188 13.1 157.676 12.5628 158.197 11.7849L160.67 11.7781L161.707 11.7605C161.393 12.575 160.968 13.3714 160.394 14.0329C158.228 16.5432 153.79 16.6336 151.382 14.4616C148.063 11.468 148.748 4.84561 153.24 3.33154C154.06 3.05501 154.577 2.9765 155.439 2.92777ZM152.593 8.28552L156.411 8.28613C156.776 8.2891 158.348 8.3343 158.589 8.24357C158.663 7.79857 158.398 7.09053 158.139 6.73839C157.319 5.62225 156.114 5.53577 154.868 5.61093C153.409 6.15971 152.941 6.80896 152.593 8.28552Z"></path>
<path fill="#FFFFFF" d="M105.71 20.693L108.946 20.6746L108.942 30.2842C110.27 28.5216 111.807 26.6616 113.184 24.9239C114.584 24.9196 115.985 24.9227 117.386 24.933C115.532 27.0346 113.599 29.1676 111.796 31.3036C112.814 32.4139 113.818 33.5371 114.807 34.6727L117.414 37.5709C116.054 37.6325 114.63 37.6087 113.263 37.6053C112.256 36.5423 109.897 33.4443 108.938 32.2015L108.945 37.6032L105.703 37.609L105.71 20.693Z"></path>
<path fill="#FFFFFF" d="M96.7013 24.7542C96.814 24.747 96.9266 24.7433 97.0402 24.7429C98.3911 24.7385 99.6619 25.1232 100.634 26.091C102.41 27.8589 102.138 30.3243 102.132 32.6054L102.125 37.6011C101.06 37.623 99.9305 37.6052 98.8598 37.6066C98.8688 35.8239 99.159 30.3668 98.5435 29.0063C98.2596 28.3803 97.7594 27.834 97.106 27.5937C96.2372 27.2746 95.3251 27.4911 94.5203 27.8707C92.9368 29.0426 93.2387 30.8714 93.2442 32.6318L93.2595 37.6057L89.9888 37.6102L89.9903 24.9205L93.2631 24.9201L93.2577 26.2227C94.3094 25.1405 95.2161 24.8963 96.7013 24.7542Z"></path>
<path fill="#FFFFFF" d="M72.0165 3.14177L75.2901 3.13602L75.2739 7.87792C75.2688 9.40002 75.0046 11.3239 76.1541 12.4961C77.1184 13.4793 79.0879 13.4685 80.0424 12.4844C81.1887 11.3027 80.9455 9.32667 80.9404 7.79903L80.9188 3.14459L84.1736 3.13733L84.169 7.17207L84.1694 15.7912L80.9176 15.7947L80.9163 14.4331C78.9213 16.3712 75.6025 16.56 73.5231 14.5979C71.7094 12.8865 72.0045 9.81032 72.0115 7.49185L72.0165 3.14177Z"></path>
<path fill="#FFFFFF" d="M92.0798 2.92558C93.7084 2.70012 95.6821 3.34712 96.714 4.65171C97.3521 5.45769 97.5098 6.12878 97.6837 7.11571L94.5654 7.1139C93.6227 3.13424 86.7023 7.21283 93.7219 8.43834C99.6665 9.47611 98.8905 16.0413 92.6251 15.9775C90.0128 16.0703 87.4787 14.5318 87.1912 11.7759L90.4143 11.7642C90.6991 13.0168 91.6824 13.4356 92.8873 13.4482C94.7385 13.4676 95.4054 11.6967 93.493 11.0145C91.2714 10.2221 87.7119 10.1293 87.501 7.06035C87.4355 6.1078 87.6754 5.23033 88.3169 4.50761C89.3081 3.37376 90.6306 3.02246 92.0798 2.92558Z"></path>
<path fill="#FFFFFF" d="M62.8774 2.92562C66.0162 2.73273 68.4573 4.32864 69.2609 7.40973L65.8175 7.42224C65.4399 6.62825 64.928 5.95543 64.0358 5.74551C60.7382 4.9787 59.7145 8.62002 60.486 11.1164C60.9987 12.8264 62.625 13.6102 64.2922 13.075C65.063 12.8277 65.4666 12.1866 65.7947 11.5091L67.1072 11.5121L69.2581 11.4983C67.4078 18.3172 57.2392 17.143 56.9848 10.0054C56.8462 6.1201 58.8202 3.18429 62.8774 2.92562Z"></path>
<path fill="#FFFFFF" d="M171.662 2.92817C171.765 2.91813 171.821 2.95226 171.914 2.99308C172.044 3.412 171.979 5.76468 171.971 6.30074C171.855 6.29845 171.74 6.29685 171.624 6.29595C167.848 6.27091 168.069 8.27105 168.074 11.2306L168.08 15.7938C167.046 15.801 165.956 15.8248 164.928 15.7762C164.804 15.5975 164.843 15.2699 164.837 15.0174L164.836 3.14561L168.078 3.13668L168.075 4.53674C169.18 3.3875 170.107 3.00856 171.662 2.92817Z"></path>
<path fill="#FFFFFF" d="M0.00020752 14.1126C0.458033 10.5829 1.78582 7.73344 4.66775 5.51694C6.15494 4.3919 7.88275 3.62783 9.71513 3.28492C11.2509 2.99918 13.2319 3.0627 14.8179 3.06353L21.3056 3.07043C23.3633 3.07256 28.3599 2.94717 30.1981 3.19127C33.3423 3.62352 36.1849 5.29207 38.097 7.82775C40.0019 10.3425 40.8259 13.5142 40.3859 16.6393C40.1992 17.9425 39.7987 19.2057 39.2004 20.378C40.6271 23.2609 40.9261 26.4434 39.8919 29.5108C38.8821 32.5226 36.7165 35.0083 33.8731 36.4195C32.6289 37.0383 31.2861 37.4343 29.9055 37.5894C28.7475 37.7287 27.3175 37.6887 26.1295 37.6866L20.7091 37.676L14.7278 37.6828C12.3522 37.6855 10.3623 37.7953 8.05512 37.0085C5.08329 35.9971 2.63198 33.8497 1.2365 31.0352C0.342 29.2067 0.330391 28.4566 0.00020752 26.6053V24.9073C0.0630201 24.6482 0.144716 23.8746 0.20975 23.5411C0.457659 22.27 0.734492 21.5266 1.28303 20.3923C0.470901 18.5509 0.297778 17.8316 0.00020752 15.8519V14.1126ZM29.1324 24.7214C32.2445 24.397 34.4591 23.2296 36.4419 20.7746C36.5459 20.6457 36.6444 20.5123 36.7371 20.375C33.4519 15.763 29.5204 15.8834 24.4333 15.9821C23.2786 16.0046 22.0461 15.9814 20.8845 15.9812L14.8894 15.9814C13.9354 15.9817 12.5611 15.9426 11.6357 16.0044C8.86083 16.2115 6.4287 17.1916 4.57707 19.3419C4.2949 19.673 4.01943 20.0098 3.75082 20.352C7.54879 25.7104 12.5794 24.7281 18.3302 24.7636C21.888 24.7856 25.5864 24.8635 29.1324 24.7214ZM10.6842 5.25406C7.73207 5.82421 5.49508 7.01556 3.76555 9.57886C2.3291 11.706 1.80409 14.3206 2.30787 16.8383C2.401 17.3144 2.54314 17.7938 2.68152 18.2592C4.02032 16.6165 5.56123 15.4932 7.54416 14.7289C10.457 13.5071 15.8456 13.9407 19.185 13.9051C19.1853 11.0633 19.138 8.03612 19.1882 5.20757C16.5778 5.22666 13.2254 5.12248 10.6842 5.25406ZM21.8778 35.5403L26.4542 35.5475C30.0236 35.5487 32.6823 35.4612 35.4665 32.6805C37.3384 30.833 38.3852 28.307 38.3695 25.6758C38.3684 25.0787 38.1966 22.944 37.7533 22.5431C33.0313 28.0289 27.6614 26.6985 21.2867 26.8588L21.2834 32.579C21.2834 33.2503 21.2418 34.8864 21.3236 35.4975C21.5546 35.5375 21.6368 35.553 21.8778 35.5403ZM21.2872 5.21914C21.2885 8.07998 21.2526 11.0517 21.293 13.9045L26.1106 13.9015C29.6521 13.9 32.1237 13.8346 35.2866 15.9479C35.7244 16.2405 36.176 16.5354 36.5707 16.8936C36.9138 17.2047 37.3707 17.9814 37.8047 18.1145L37.9715 17.7933C38.6527 14.8337 38.5421 12.4828 36.8793 9.81296C35.5035 7.59841 33.3023 6.02444 30.7633 5.43974C28.7789 4.98342 23.5846 5.31411 21.2872 5.21914ZM2.66696 22.5167C1.85633 25.3283 1.86083 27.8267 3.31892 30.4616C4.58052 32.7419 6.68885 34.4329 9.18718 35.168C11.1956 35.7439 16.5312 35.5438 18.9488 35.5403L19.1608 35.5127C19.2244 35.0507 19.1874 33.2688 19.1872 32.7279L19.1869 26.8447L14.0378 26.8501C9.61266 26.8488 6.678 26.5611 3.32141 23.1721C3.19226 23.0416 2.7932 22.6238 2.66696 22.5167Z"></path>
<path fill="#FFFFFF" d="M57.776 20.6832C58.8433 20.6829 59.9602 20.6991 61.0231 20.6729L61.0254 26.5768C62.1694 25.3358 63.1164 24.8304 64.8204 24.7429C72.4921 24.349 73.3472 36.5193 65.8686 37.8H64.5386C63.0245 37.4878 62.0298 37.1848 61.0305 35.9277L61.0323 37.6118L57.7791 37.6142L57.776 20.6832ZM64.7336 34.9898C69.2352 33.889 68.3657 27.4236 64.1559 27.5367C59.4455 28.4812 60.3069 35.135 64.7336 34.9898Z"></path>
<path fill="#FFFFFF" d="M78.1737 37.8001C76.3884 37.3807 75.1013 36.7353 74.1085 35.1247C72.3422 32.2594 72.7887 27.3888 75.8611 25.557C78.2415 24.138 81.1787 24.5061 83.0565 26.5519L83.0484 24.9198L86.3343 24.9206L86.3299 37.6012L83.0546 37.6101L83.0507 35.9749C81.9457 37.0785 81.2888 37.4629 79.7492 37.8001H78.1737ZM80.0334 34.9875C84.5346 33.9264 83.8266 27.6151 79.5284 27.5348C74.69 28.3988 75.7994 35.1893 80.0334 34.9875Z"></path>
<path fill="#FFFFFF" d="M177.159 11.77C177.848 13.4724 179.68 14.1119 181.207 12.7843C181.745 12.3159 181.355 11.4657 180.778 11.2189C180.366 11.0426 179.894 10.8821 179.443 10.7851C178.067 10.3453 176.515 10.101 175.362 9.17778C173.97 8.14141 174 5.76411 175.096 4.52508C177.343 1.98441 183.064 2.3575 184.215 5.89005C184.352 6.30921 184.394 6.67672 184.431 7.10834L181.433 7.11946C181.192 6.52366 181.098 6.19471 180.526 5.84657C179.659 5.30727 178.204 5.12472 177.602 6.13728C177.295 6.56695 177.358 7.18187 177.839 7.46184C180.462 8.98862 183.65 8.14651 184.575 11.7529V12.5851C183.445 17.4886 174.804 17.1728 173.974 11.7756L177.159 11.77Z"></path>
<path fill="#FFFFFF" d="M101.436 2.44141e-05H104.691C104.724 0.970627 104.702 2.09562 104.705 3.07895L107.516 3.07477L107.515 5.75667L104.689 5.76707C104.725 7.0988 104.445 12.0821 105.049 12.8145C105.685 13.1997 106.752 13.0809 107.517 13.0657L107.515 15.7919C106.952 15.8002 106.388 15.8032 105.825 15.8011C102.911 15.7741 101.39 14.7308 101.417 11.6176C101.432 9.68188 101.423 7.69879 101.446 5.75631L99.4284 5.76307L99.4203 3.07697L101.436 3.07954C101.425 2.06034 101.435 1.02104 101.436 2.44141e-05Z"></path>
</g>
</svg>
